<svg xmlns="http://www.w3.org/2000/svg" viewBox="0 0 357.14 50.68"><defs><style>.cls-1{fill:#3c3c3c;}.cls-2{fill:#e20613;}</style></defs><title>Element 1</title><g id="Ebene_2" data-name="Ebene 2"><g id="Ebene_1-2" data-name="Ebene 1"><path class="cls-1" d="M161,43.05q4.75,0,6.93-1.61a5.32,5.32,0,0,0,2.17-4.55,5.86,5.86,0,0,0-.74-3,7.61,7.61,0,0,0-2.1-2.28,18.18,18.18,0,0,0-3.32-1.89q-2-.87-4.48-1.71c-1.68-.61-3.3-1.27-4.87-2a16.38,16.38,0,0,1-4.12-2.69,12.55,12.55,0,0,1-2.88-3.85,12.31,12.31,0,0,1-1.08-5.39A12.63,12.63,0,0,1,151,3.75Q155.57,0,163.41,0a29.56,29.56,0,0,1,8.08,1,25,25,0,0,1,5.57,2.21l-2.73,7.14a20.92,20.92,0,0,0-5.21-2,24.21,24.21,0,0,0-5.85-.7A9.24,9.24,0,0,0,157.7,9.1a4.83,4.83,0,0,0-2,4.13,5.51,5.51,0,0,0,.66,2.77,7.16,7.16,0,0,0,1.89,2.06,16.3,16.3,0,0,0,2.88,1.68q1.63.77,3.6,1.47,3.44,1.26,6.13,2.55a17.4,17.4,0,0,1,4.54,3.08,12.06,12.06,0,0,1,2.84,4.2,15.63,15.63,0,0,1,1,5.85q0,6.59-4.66,10.18T161,50.68a35.42,35.42,0,0,1-5.49-.39,35,35,0,0,1-4.42-.94,28.57,28.57,0,0,1-3.32-1.16,19.12,19.12,0,0,1-2.24-1.08l2.59-7.21a29.76,29.76,0,0,0,5.11,2.1A25.26,25.26,0,0,0,161,43.05Z"/><path class="cls-1" d="M186,49.63V1.12h31.15V8.61H194.82v12H214.7v7.35H194.82V42.14h24v7.49Z"/><path class="cls-1" d="M276.47,46.62a3.92,3.92,0,0,1-1,2.73,3.6,3.6,0,0,1-2.83,1.12,3.64,3.64,0,0,1-2.84-1.12,4.19,4.19,0,0,1,0-5.46,3.64,3.64,0,0,1,2.84-1.12,3.6,3.6,0,0,1,2.83,1.12A3.92,3.92,0,0,1,276.47,46.62Z"/><path class="cls-1" d="M299.83,50.68A22.43,22.43,0,0,1,291.11,49a19.87,19.87,0,0,1-7-4.9,23.42,23.42,0,0,1-4.69-8,31.65,31.65,0,0,1-1.71-10.81,29.6,29.6,0,0,1,1.85-10.82,24.11,24.11,0,0,1,4.94-7.94,20.32,20.32,0,0,1,7.14-4.87A22.45,22.45,0,0,1,300.11.07a32.83,32.83,0,0,1,5,.35,27.17,27.17,0,0,1,3.92.87c1.12.36,2.07.71,2.87,1a12.67,12.67,0,0,1,1.82,1l-1.54,4.13a28.13,28.13,0,0,0-4.45-2.07,21.86,21.86,0,0,0-14.63.53,15.7,15.7,0,0,0-5.7,4.34,18.81,18.81,0,0,0-3.47,6.65,29.65,29.65,0,0,0-1.15,8.54,30.64,30.64,0,0,0,1.15,8.72,18.64,18.64,0,0,0,3.4,6.61,14.94,14.94,0,0,0,5.49,4.2,18,18,0,0,0,7.46,1.47,28.7,28.7,0,0,0,7.73-.88,22,22,0,0,0,4.73-1.78L314,47.81a8.33,8.33,0,0,1-1.68.8c-.8.31-1.8.62-3,1a32.82,32.82,0,0,1-4.2.8A40.78,40.78,0,0,1,299.83,50.68Z"/><path class="cls-1" d="M352.38,1.12h4.76V49.63h-4.76V26.32H326.06V49.63H321.3V1.12h4.76V22.19h26.32Z"/><polygon class="cls-1" points="129.76 1.12 129.76 34.06 107.07 1.12 98.25 1.12 98.25 49.63 107.07 49.63 107.07 16.64 129.76 49.63 138.58 49.63 138.58 1.12 129.76 1.12"/><path class="cls-1" d="M264,49.63,251.11,31a18.55,18.55,0,0,0,4.59-2.16,12.85,12.85,0,0,0,4.38-5,16.42,16.42,0,0,0,1.5-7.32q0-8.19-5.64-12T239.74.63q-3.15,0-6.9.25a43,43,0,0,0-6.82.94V49.63h8.82V32.55h4.41c.76,0,1.49,0,2.21,0l11.78,17.13ZM234.84,8.47c1.45-.14,3.29-.21,5.53-.21a27.08,27.08,0,0,1,4.72.39,11.61,11.61,0,0,1,3.82,1.29,6.63,6.63,0,0,1,2.52,2.52,8,8,0,0,1,.91,4c0,3.31-1.14,5.57-3.43,6.76S243.36,25,239.11,25h-4.27Z"/><path class="cls-2" d="M50.73,24.27H28.34V31.6H40.62a16.51,16.51,0,1,1-2.57-16.82,30.68,30.68,0,0,1,4.42-8.11,25.32,25.32,0,1,0,8.21,18.67C50.68,25,50.7,24.63,50.73,24.27Z"/><path class="cls-2" d="M67.2,0A25.31,25.31,0,0,0,42.65,19.13H51.9a16.79,16.79,0,0,1,2.6-4.35,16.52,16.52,0,1,1,0,21.12A31.26,31.26,0,0,1,50.08,44,25.34,25.34,0,1,0,67.2,0Z"/></g></g></svg>